<svg width="82" height="82" viewBox="0 0 82 82" fill="none" xmlns="http://www.w3.org/2000/svg">
<g clip-path="url(#clip0_1_31)">
<path d="M41.2753 0.360779C18.9893 0.360779 0.860718 18.4911 0.860718 40.7753C0.860718 63.0595 18.9893 81.1899 41.2753 81.1899C63.5612 81.1899 81.6898 63.0595 81.6898 40.7753C81.6898 18.4911 63.5612 0.360779 41.2753 0.360779ZM41.2753 77.8221C20.8476 77.8221 4.22855 61.203 4.22855 40.7753C4.22855 20.3477 20.8476 3.72861 41.2753 3.72861C61.7029 3.72861 78.322 20.3477 78.322 40.7753C78.322 61.203 61.7029 77.8221 41.2753 77.8221Z" fill="white"/>
<path d="M57.3422 39.3594L33.7671 24.204C33.2507 23.8669 32.5831 23.8488 32.0503 24.1414C31.5075 24.4374 31.1721 25.0033 31.1721 25.6199V55.9308C31.1721 56.5474 31.5075 57.1132 32.0503 57.4093C32.3002 57.5458 32.5798 57.6148 32.8561 57.6148C33.1718 57.6148 33.4908 57.5259 33.7671 57.3467L57.3422 42.1913C57.8225 41.8822 58.1151 41.3476 58.1151 40.7753C58.1151 40.2031 57.8225 39.6687 57.3422 39.3594ZM34.5399 52.8457V28.705L53.3165 40.7753L34.5399 52.8457Z" fill="white"/>
</g>
<defs>
<clipPath id="clip0_1_31">
<rect width="80.8291" height="80.8291" fill="white" transform="translate(0.860718 0.360779)"/>
</clipPath>
</defs>
</svg>
